<svg viewBox="0 0 1024 1024" version="1.1" xmlns="http://www.w3.org/2000/svg" desc="Created with imagetracer.js version 1.2.6" ><path fill="rgb(232,106,58)" stroke="rgb(232,106,58)" stroke-width="1" opacity="1" d="M 546.5 161 L 553.5 162 Q 555 159.5 560.5 161 L 562.5 161 L 570.5 162 L 572.5 161 L 577 162 L 577 176.5 L 578 178.5 L 577 179.5 L 577 197.5 L 578.5 199 L 614 199 L 614 205.5 L 615 206.5 L 615 236 Q 617.7 234.1 624.5 235 L 627.5 236 L 651.5 236 L 654 235 L 654 271.5 L 655.5 273 L 688.5 273 L 690 274.5 L 690 286.5 L 691 288.5 L 690 289.5 L 690 300.5 Q 691.5 304.5 698.5 303 Q 700.2 300.3 706.5 302 L 708 300.5 L 707 281.5 L 707 279.5 L 708 277.5 L 708 262.5 L 707 261.5 L 707 238.5 L 708 235 L 787.5 235 L 788 235.5 L 788 254.5 L 789 255.5 L 789 292.5 L 789 294.5 L 788 306.5 L 789 308.5 L 788 309.5 L 788 342.5 L 789 343.5 L 789 368.5 L 789 370.5 L 789 382.5 L 788 383.5 L 791.5 384 L 793.5 383 L 793.5 384 L 789 385 L 789 418.5 L 790 421 L 792.5 420 L 800.5 420 L 802.5 421 L 810.5 421 L 812.5 420 L 815.5 421 L 817.5 421 L 824.5 420 Q 826 423.5 827.5 421 Q 833.4 419.3 832 423 L 828.5 422 L 826 423 L 826 457.5 L 827.5 459 L 830.5 458 L 832.5 459 L 836.5 459 L 840.5 458 L 844.5 458 L 846.5 459 L 859.5 458 L 861.5 459 L 863.5 459 L 882.5 458 L 884.5 458 L 896.5 459 L 898 458.5 L 897.5 460 L 899 460.5 L 898 462.5 L 899 465.5 L 898 466.5 L 898 531.5 L 897 534 L 894.5 533 L 867.5 533 L 866.5 532 L 865.5 533 L 830 533 L 830 495.5 L 827.5 495 L 826.5 494 L 813.5 494 L 811.5 494 L 809.5 495 L 806.5 494 L 804.5 495 L 802.5 495 L 799.5 494 L 797.5 495 L 795.5 495 L 789 494 L 790 490.5 L 790 458.5 L 788.5 457 L 768.5 457 L 766.5 457 Q 760.3 455.3 758.5 458 L 757.5 457 L 749 457 L 749 420.5 L 747.5 419 L 744.5 420 L 717.5 420 L 716.5 419 L 707.5 419 L 706 417.5 L 706 383.5 L 704.5 382 L 665 382 L 665 345.5 L 661.5 345 L 660.5 344 L 625.5 344 L 624.5 343 L 623 343.5 L 624 342.5 L 624 307 L 586.5 307 L 584 306 L 584 271.5 L 582.5 271 L 580.5 271 L 547.5 271 L 545 270 L 544 260.5 L 545 258.5 L 544 253.5 L 545 249.5 L 544 244.5 L 545 239.5 L 544 236.5 L 545 234.5 L 536.5 233 L 533.5 234 L 531.5 234 Q 523.3 235.2 518.5 233 L 514.5 234 L 513.5 233 L 502.5 233 L 501 234.5 L 501 269.5 L 499.5 271 L 497.5 271 L 495.5 270 L 494.5 271 L 468.5 271 L 464.5 270 L 462 272.5 L 462 306 L 455.5 308 L 437.5 308 L 435.5 308 L 430.5 307 L 428.5 308 L 425.5 307 L 423 307.5 L 423 344 L 384.5 344 Q 381.2 345.7 382 351.5 L 382 353.5 L 382 362.5 L 383 363.5 L 382 364.5 L 382 379.5 L 382.5 381 L 381 381.5 L 381.5 383 L 379.5 382 L 345.5 382 L 343.5 383 L 342 382.5 L 342 418.5 L 340.5 419 L 339.5 420 L 316.5 420 L 314.5 420 L 312.5 419 L 309.5 420 Q 304 421.5 302.5 419 L 301 421.5 L 301 457 L 261.5 457 L 260 458.5 L 260 493.5 L 258.5 495 L 237.5 495 L 236.5 494 L 233.5 495 L 223.5 494 Q 219.5 496.5 221 504.5 L 222 505.5 L 222 532 L 195.5 532 L 194.5 533 L 143.5 533 L 142.5 534 L 141 529.5 L 142 528.5 L 142 516.5 L 141 515.5 L 141 499.5 L 142 497 L 155.5 497 L 156.5 496 L 159.5 497 L 161.5 496 L 166.5 497 Q 172 498.5 173.5 496 L 175.5 497 L 181 494.5 L 181 459 L 220.5 459 L 222 457.5 L 223 422.5 L 224.5 421 L 256.5 421 L 257.5 422 L 261 420.5 L 261 386.5 L 262 385.5 L 261.5 384 Q 267.4 386.6 277.5 385 L 280.5 384 L 282.5 385 L 285.5 384 L 287.5 385 L 288.5 384 L 300.5 384 L 302 382.5 L 302 347 L 341.5 347 L 343 345.5 L 343 309 L 381.5 309 L 383 307.5 L 383 273 L 423 273 L 423 236 L 441.5 236 L 443.5 236 L 445.5 235 L 448.5 236 L 452.5 235 L 455.5 236 L 457.5 236 L 463 235 L 463 198 L 500.5 198 L 505.5 199 L 508.5 198 L 510.5 198 Q 516 196.5 517.5 199 L 518.5 198 L 535.5 198 L 538.5 199 L 540.5 198 L 542.5 199 L 545 196.5 L 545 185.5 L 544 184.5 L 544 163.5 L 546.5 161 Z " /><path fill="rgb(232,106,58)" stroke="rgb(232,106,58)" stroke-width="1" opacity="1" d="M 823.5 383 L 824 389.5 L 823 389.5 L 823.5 383 Z " /><path fill="rgb(232,106,58)" stroke="rgb(232,106,58)" stroke-width="1" opacity="1" d="M 860.5 421 L 862 421.5 L 860.5 427 L 859 422.5 L 860.5 421 Z " /><path fill="rgb(232,106,58)" stroke="rgb(232,106,58)" stroke-width="1" opacity="1" d="M 831.5 424 L 832.5 426 L 831.5 424 Z " /><path fill="rgb(232,106,58)" stroke="rgb(232,106,58)" stroke-width="1" opacity="1" d="M 835.5 424 L 834.5 426 L 835.5 424 Z " /><path fill="rgb(232,106,58)" stroke="rgb(232,106,58)" stroke-width="1" opacity="1" d="M 837.5 425 L 836.5 427 L 837.5 425 Z " /><path fill="rgb(232,106,58)" stroke="rgb(232,106,58)" stroke-width="1" opacity="1" d="M 841.5 425 L 841.5 428 Q 838.5 426.5 841.5 425 Z " /><path fill="rgb(232,106,58)" stroke="rgb(232,106,58)" stroke-width="1" opacity="1" d="M 844.5 425 L 844.5 428 Q 841.5 426.5 844.5 425 Z " /><path fill="rgb(232,106,58)" stroke="rgb(232,106,58)" stroke-width="1" opacity="1" d="M 852.5 443 L 853.5 445 L 852.5 443 Z " /><path fill="rgb(232,106,58)" stroke="rgb(232,106,58)" stroke-width="1" opacity="1" d="M 312.5 568 L 319 568.5 L 312.5 569 L 312.5 568 Z " /><path fill="rgb(232,106,58)" stroke="rgb(232,106,58)" stroke-width="1" opacity="1" d="M 331.5 568 L 334 568.5 L 331.5 569 L 331.5 568 Z " /><path fill="rgb(232,106,58)" stroke="rgb(232,106,58)" stroke-width="1" opacity="1" d="M 363.5 638 L 364 640.5 L 363 640.5 L 363.5 638 Z " /><path fill="rgb(232,106,58)" stroke="rgb(232,106,58)" stroke-width="1" opacity="1" d="M 363.5 650 L 364 676.5 L 363 676.5 L 363.5 650 Z " /><path fill="rgb(232,106,58)" stroke="rgb(232,106,58)" stroke-width="1" opacity="1" d="M 791.5 797 L 797.5 797 L 826.5 797 L 828 798.5 Q 825.5 800 827 805.5 L 827 809.5 L 827 833.5 L 825.5 835 L 707.5 835 L 706 833.5 L 706 817.5 L 705 816.5 Q 707.2 815.3 706 810.5 L 705 808.5 L 705 806.5 L 706 799 L 744.5 799 L 745.5 798 L 747.5 799 L 749.5 799 L 752.5 798 L 756.5 799 L 764.5 799 L 767.5 798 L 772.5 799 L 780.5 799 L 781.5 798 L 784.5 799 L 787.5 798 L 791.5 797 Z " /><path fill="rgb(232,106,58)" stroke="rgb(232,106,58)" stroke-width="1" opacity="1" d="M 194.5 798 L 195 835.5 L 194 835.5 L 194.5 798 Z " /><path fill="rgb(232,106,58)" stroke="rgb(232,106,58)" stroke-width="1" opacity="1" d="M 828.5 827 L 829 832.5 L 828 832.5 L 828.5 827 Z " /><path fill="rgb(232,106,58)" stroke="rgb(232,106,58)" stroke-width="1" opacity="1" d="M 828.5 835 L 827.5 837 L 828.5 835 Z " /><path fill="rgb(232,106,58)" stroke="rgb(232,106,58)" stroke-width="1" opacity="1" d="M 197.5 836 L 517 836.5 L 197.5 837 L 197.5 836 Z " /><path fill="rgb(232,106,58)" stroke="rgb(232,106,58)" stroke-width="1" opacity="1" d="M 721.5 836 L 729 836.5 L 721.5 837 L 721.5 836 Z " /><path fill="rgb(232,106,58)" stroke="rgb(232,106,58)" stroke-width="1" opacity="1" d="M 743.5 836 L 751 836.5 L 743.5 837 L 743.5 836 Z " /><path fill="rgb(240,186,70)" stroke="rgb(240,186,70)" stroke-width="1" opacity="1" d="M 710.5 196 L 787 196.5 L 787 198.5 L 787 200 L 789 200.5 L 789 212.5 L 788 213.5 L 788 235 L 707 235 L 707 198.5 L 710.5 196 Z " /><path fill="rgb(240,186,70)" stroke="rgb(240,186,70)" stroke-width="1" opacity="1" d="M 351.5 568 Q 360 566 362 570.5 L 363 572.5 L 363 601.5 L 362 602.5 L 362 611 L 359 611.5 L 359.5 613 L 322.5 613 L 321.5 612 L 319.5 613 Q 318.1 610.4 313.5 611 L 311.5 611 L 310 610.5 L 310 570 L 317.5 569 L 320.5 570 L 321.5 569 L 344.5 569 Q 346 571.5 351.5 570 L 351.5 568 Z M 355 611 L 355 612 L 358 612 L 355 611 Z " /><path fill="rgb(240,186,70)" stroke="rgb(240,186,70)" stroke-width="1" opacity="1" d="M 414 568 L 421.5 568 L 422.5 569 L 424.5 569 L 433.5 569 L 434.5 570 L 436 569.5 L 435.5 611 Q 434.3 608.8 433 611.5 L 433.5 613 L 387.5 613 L 382 609.5 L 382.5 570 L 386.5 570 L 393.5 569 L 397.5 570 Q 398.8 567.8 403.5 569 L 406.5 570 L 409.5 569 L 414 570 L 414 568 Z " /><path fill="rgb(240,186,70)" stroke="rgb(240,186,70)" stroke-width="1" opacity="1" d="M 788.5 574 L 826.5 574 L 829 576.5 L 829 774.5 L 828 775.5 L 829 776.5 L 829 796.5 Q 827.8 799.3 826.5 797 L 797.5 797 L 796.5 798 L 790.5 798 L 787 797.5 L 787 575.5 L 788.5 574 Z " /><path fill="rgb(240,186,70)" stroke="rgb(240,186,70)" stroke-width="1" opacity="1" d="M 312 630 L 362 630 L 362 675 L 351 675.5 L 359 676.5 L 349.5 677 L 347.5 676 L 342.5 677 L 339.5 676 L 335.5 677 L 334.5 676 L 321.5 676 L 320 676.5 L 320.5 675 L 313.5 676 L 310 673.5 L 310.5 632 L 311.5 634 L 312 630 Z " /><path fill="rgb(240,186,70)" stroke="rgb(240,186,70)" stroke-width="1" opacity="1" d="M 384 630 L 434.5 630 L 435 631.5 L 436 633.5 L 436 635.5 L 436 662.5 L 435 663.5 L 436 664.5 L 436 675.5 L 433.5 676 L 408.5 676 L 407.5 675 L 405.5 676 L 402.5 675 L 389.5 675 L 384 676 L 383.5 674 L 382 674.5 L 382 632.5 Q 384.8 633.1 384 630 Z " /><path fill="rgb(240,186,70)" stroke="rgb(240,186,70)" stroke-width="1" opacity="1" d="M 234.5 797 L 515.5 797 L 517 798.5 L 517 833.5 L 514.5 836 L 458.5 836 L 457.5 835 L 441.5 835 L 438.5 836 L 436.5 836 L 397.5 835 L 395.5 835 L 393.5 836 L 370.5 836 L 368.5 836 L 313.5 835 L 310.5 836 L 305.5 835 L 304.5 836 L 289.5 836 Q 287.7 833.3 281.5 835 L 279.5 835 Q 270.6 833.6 265.5 836 L 264.5 835 L 252.5 835 L 250.5 835 L 243.5 836 L 242.5 835 L 223.5 835 L 219.5 836 L 218.5 835 L 201.5 835 L 199.5 835 Q 193.4 836.8 196 829.5 L 195 828.5 L 195 799.5 L 196.5 798 L 233.5 798 L 234.5 797 Z " /><path fill="rgb(240,186,70)" stroke="rgb(240,186,70)" stroke-width="1" opacity="1" d="M 707.5 797 L 712 797.5 L 707.5 798 L 707.5 797 Z " /><path fill="rgb(240,186,70)" stroke="rgb(240,186,70)" stroke-width="1" opacity="1" d="M 713.5 797 L 718 797.5 L 713.5 798 L 713.5 797 Z " /><path fill="rgb(240,186,70)" stroke="rgb(240,186,70)" stroke-width="1" opacity="1" d="M 722.5 797 L 725 797.5 L 722.5 798 L 722.5 797 Z " /><path fill="rgb(240,186,70)" stroke="rgb(240,186,70)" stroke-width="1" opacity="1" d="M 726.5 797 L 738 797.5 L 726.5 798 L 726.5 797 Z " /><path fill="rgb(240,186,70)" stroke="rgb(240,186,70)" stroke-width="1" opacity="1" d="M 745.5 797 L 781 797.5 L 745.5 798 L 745.5 797 Z " /><path fill="rgb(240,186,70)" stroke="rgb(240,186,70)" stroke-width="1" opacity="1" d="M 782.5 797 L 786 797.5 L 782.5 798 L 782.5 797 Z " /><path fill="rgb(240,186,70)" stroke="rgb(240,186,70)" stroke-width="1" opacity="1" d="M 827.5 799 L 828 805.5 L 827 805.5 L 827.5 799 Z " /><path fill="rgb(240,186,70)" stroke="rgb(240,186,70)" stroke-width="1" opacity="1" d="M 827.5 809 L 828 834.5 L 826.5 836 L 707.5 836 L 707.5 835 L 826.5 835 L 827 834.5 L 827.5 809 Z " /><path fill="rgb(102,184,186)" stroke="rgb(102,184,186)" stroke-width="1" opacity="1" d="M 462.5 125 L 461.5 127 L 462.5 125 Z " /><path fill="rgb(102,184,186)" stroke="rgb(102,184,186)" stroke-width="1" opacity="1" d="M 465.5 125 L 485 125.5 L 465.5 126 L 465.5 125 Z " /><path fill="rgb(102,184,186)" stroke="rgb(102,184,186)" stroke-width="1" opacity="1" d="M 493.5 125 L 577 125.5 L 493.5 126 L 493.5 125 Z " /><path fill="rgb(102,184,186)" stroke="rgb(102,184,186)" stroke-width="1" opacity="1" d="M 578.5 126 L 579 159.5 L 578 159.5 L 578.5 126 Z " /><path fill="rgb(102,184,186)" stroke="rgb(102,184,186)" stroke-width="1" opacity="1" d="M 797.5 162 L 798 183.5 L 797 183.5 L 797.5 162 Z " /><path fill="rgb(102,184,186)" stroke="rgb(102,184,186)" stroke-width="1" opacity="1" d="M 616.5 182 L 617 190.5 L 616 190.5 L 616.5 182 Z " /><path fill="rgb(102,184,186)" stroke="rgb(102,184,186)" stroke-width="1" opacity="1" d="M 806.5 188 L 824 188.5 L 806.5 189 L 806.5 188 Z " /><path fill="rgb(102,184,186)" stroke="rgb(102,184,186)" stroke-width="1" opacity="1" d="M 422.5 198 L 423 222.5 L 422 222.5 L 422.5 198 Z " /><path fill="rgb(102,184,186)" stroke="rgb(102,184,186)" stroke-width="1" opacity="1" d="M 377.5 234 L 381 234.5 L 377.5 235 L 377.5 234 Z " /><path fill="rgb(102,184,186)" stroke="rgb(102,184,186)" stroke-width="1" opacity="1" d="M 656.5 235 L 672 235.5 L 656.5 236 L 656.5 235 Z " /><path fill="rgb(102,184,186)" stroke="rgb(102,184,186)" stroke-width="1" opacity="1" d="M 382.5 269 L 383 271.5 L 382 271.5 L 382.5 269 Z " /><path fill="rgb(102,184,186)" stroke="rgb(102,184,186)" stroke-width="1" opacity="1" d="M 303.5 271 L 329 271.5 L 303.5 272 L 303.5 271 Z " /><path fill="rgb(102,184,186)" stroke="rgb(102,184,186)" stroke-width="1" opacity="1" d="M 503.5 272 L 504 287.5 L 503 287.5 L 503.5 272 Z " /><path fill="rgb(102,184,186)" stroke="rgb(102,184,186)" stroke-width="1" opacity="1" d="M 517.5 272 L 543 272 L 543 309 L 560.5 309 L 560.5 310 L 543.5 310 L 542 308.5 L 542 273 L 517.5 273 L 517.5 272 Z " /><path fill="rgb(102,184,186)" stroke="rgb(102,184,186)" stroke-width="1" opacity="1" d="M 342.5 275 L 343 303.5 L 342 303.5 L 342.5 275 Z " /><path fill="rgb(102,184,186)" stroke="rgb(102,184,186)" stroke-width="1" opacity="1" d="M 503.5 289 L 504 305.5 L 503 305.5 L 503.5 289 Z " /><path fill="rgb(102,184,186)" stroke="rgb(102,184,186)" stroke-width="1" opacity="1" d="M 342.5 305 L 343 307.5 L 342 307.5 L 342.5 305 Z " /><path fill="rgb(102,184,186)" stroke="rgb(102,184,186)" stroke-width="1" opacity="1" d="M 464 309 L 466 309.5 L 465 310.5 L 464.5 340 L 464 309 Z " /><path fill="rgb(102,184,186)" stroke="rgb(102,184,186)" stroke-width="1" opacity="1" d="M 484.5 309 L 498 309.5 L 484.5 310 L 484.5 309 Z " /><path fill="rgb(102,184,186)" stroke="rgb(102,184,186)" stroke-width="1" opacity="1" d="M 570.5 309 L 583 309.5 L 583 311.5 L 582 313.5 L 581.5 326 L 581 310 L 570.5 310 L 570.5 309 Z " /><path fill="rgb(102,184,186)" stroke="rgb(102,184,186)" stroke-width="1" opacity="1" d="M 425.5 346 L 426 382.5 L 425 382.5 L 425.5 346 Z " /><path fill="rgb(102,184,186)" stroke="rgb(102,184,186)" stroke-width="1" opacity="1" d="M 428.5 346 L 444 346.5 L 428.5 347 L 428.5 346 Z " /><path fill="rgb(102,184,186)" stroke="rgb(102,184,186)" stroke-width="1" opacity="1" d="M 447.5 346 L 462 346.5 L 458.5 348 L 454.5 347 L 452.5 347 Q 446.5 348.3 447.5 346 Z " /><path fill="rgb(102,184,186)" stroke="rgb(102,184,186)" stroke-width="1" opacity="1" d="M 584.5 347 L 587 347.5 L 584.5 348 L 584.5 347 Z " /><path fill="rgb(102,184,186)" stroke="rgb(102,184,186)" stroke-width="1" opacity="1" d="M 608.5 347 L 611 347.5 L 608.5 348 L 608.5 347 Z " /><path fill="rgb(102,184,186)" stroke="rgb(102,184,186)" stroke-width="1" opacity="1" d="M 621.5 347 L 622 352.5 L 621 352.5 L 621.5 347 Z " /><path fill="rgb(102,184,186)" stroke="rgb(102,184,186)" stroke-width="1" opacity="1" d="M 470 348 L 578 348 L 578 386 L 618 386 L 618 422 L 658 422 L 658 459.5 L 659.5 460 L 661.5 460 L 670.5 459 L 672.5 460 L 673.5 459 L 689.5 459 L 691.5 459 L 699.5 459 L 701 460.5 L 701 496 L 743.5 496 L 744 498.5 L 745 499.5 L 745 527.5 L 745 529.5 L 744 535 L 787 535 L 787 573.5 L 787 575.5 L 787 797 L 706 797 L 706 676.5 L 707 675.5 L 707 656.5 L 706 654.5 L 707 653.5 L 707 635.5 L 706 634.5 L 706 604.5 L 707 602 L 673 602 L 673 569.5 L 672.5 569 L 551 569 L 551 602 L 516.5 602 L 516 603.5 L 517 604.5 L 517 795.5 L 515.5 797 L 233 797 L 233 575.5 L 232 574.5 L 233.5 574 L 234.5 575 L 242.5 575 L 243.5 574 L 257 574 L 258 569.5 L 258 536.5 L 257.5 535 L 261 534.5 L 261 499.5 L 262 499.5 L 262 535 L 298.5 535 L 299.5 534 L 307 534 L 307 496 L 349 496 L 349 460.5 L 350.5 459 L 390 459 L 390 451.5 L 389 450.5 L 389 437.5 L 389 435.5 L 390 433.5 L 389 431.5 Q 391.5 430 390 424.5 L 389 422 L 429.5 422 L 431 420.5 L 431 386 L 470 386 L 470 348 Z M 309 535 L 309 567 L 308 568 L 275 568 L 275 678 L 276 678 L 309 678 L 309 710 L 436 710 Q 438 709 436 708 L 436 700 L 437 699 L 437 680 L 436 679 L 471 678 L 471 569 L 471 568 L 437 568 L 436 567 L 437 564 L 437 536 L 437 535 L 309 535 Z " /><path fill="rgb(102,184,186)" stroke="rgb(102,184,186)" stroke-width="1" opacity="1" d="M 621.5 362 L 622 383.5 L 621 383.5 L 621.5 362 Z " /><path fill="rgb(102,184,186)" stroke="rgb(102,184,186)" stroke-width="1" opacity="1" d="M 221.5 363 L 222 381.5 L 221 381.5 L 221.5 363 Z " /><path fill="rgb(102,184,186)" stroke="rgb(102,184,186)" stroke-width="1" opacity="1" d="M 180.5 382 L 199 382.5 L 180.5 383 L 180.5 382 Z " /><path fill="rgb(102,184,186)" stroke="rgb(102,184,186)" stroke-width="1" opacity="1" d="M 828.5 382 L 862.5 382 L 864 383.5 L 863.5 385 L 863 383 L 828.5 383 L 828.5 382 Z " /><path fill="rgb(102,184,186)" stroke="rgb(102,184,186)" stroke-width="1" opacity="1" d="M 223.5 383 L 226 383.5 L 223.5 384 L 223.5 383 Z " /><path fill="rgb(102,184,186)" stroke="rgb(102,184,186)" stroke-width="1" opacity="1" d="M 230.5 383 L 259 383.5 L 230.5 384 L 230.5 383 Z " /><path fill="rgb(102,184,186)" stroke="rgb(102,184,186)" stroke-width="1" opacity="1" d="M 398.5 384 L 422 384.5 L 398.5 385 L 398.5 384 Z " /><path fill="rgb(102,184,186)" stroke="rgb(102,184,186)" stroke-width="1" opacity="1" d="M 624.5 384 L 663 384 L 663 418.5 L 662 418.5 L 662 385 L 624.5 385 L 624.5 384 Z " /><path fill="rgb(102,184,186)" stroke="rgb(102,184,186)" stroke-width="1" opacity="1" d="M 181.5 420 L 191 420.5 L 181.5 421 L 181.5 420 Z " /><path fill="rgb(102,184,186)" stroke="rgb(102,184,186)" stroke-width="1" opacity="1" d="M 198.5 420 L 221 420.5 L 198.5 421 L 198.5 420 Z " /><path fill="rgb(102,184,186)" stroke="rgb(102,184,186)" stroke-width="1" opacity="1" d="M 863.5 420 L 894 420.5 L 863.5 421 L 863.5 420 Z " /><path fill="rgb(102,184,186)" stroke="rgb(102,184,186)" stroke-width="1" opacity="1" d="M 343 421 L 345 421.5 L 345 430.5 L 344 430.5 L 343 421 Z " /><path fill="rgb(102,184,186)" stroke="rgb(102,184,186)" stroke-width="1" opacity="1" d="M 664.5 421 L 669 421.5 L 664.5 422 L 664.5 421 Z " /><path fill="rgb(102,184,186)" stroke="rgb(102,184,186)" stroke-width="1" opacity="1" d="M 698.5 421 Q 708.3 417.8 705 427.5 L 704 427.5 Q 706.8 419.3 698.5 422 L 698.5 421 Z " /><path fill="rgb(102,184,186)" stroke="rgb(102,184,186)" stroke-width="1" opacity="1" d="M 140.5 423 L 141 431.5 L 140 431.5 L 140.5 423 Z " /><path fill="rgb(102,184,186)" stroke="rgb(102,184,186)" stroke-width="1" opacity="1" d="M 140.5 455 L 141 457.5 L 140 457.5 L 140.5 455 Z " /><path fill="rgb(102,184,186)" stroke="rgb(102,184,186)" stroke-width="1" opacity="1" d="M 147.5 458 L 150 458.5 L 147.5 459 L 147.5 458 Z " /><path fill="rgb(102,184,186)" stroke="rgb(102,184,186)" stroke-width="1" opacity="1" d="M 302.5 459 L 310 459.5 L 304 460 L 303.5 495 L 303 460.5 L 302.5 459 Z " /><path fill="rgb(102,184,186)" stroke="rgb(102,184,186)" stroke-width="1" opacity="1" d="M 311.5 459 L 314 459.5 L 311.5 460 L 311.5 459 Z " /><path fill="rgb(102,184,186)" stroke="rgb(102,184,186)" stroke-width="1" opacity="1" d="M 321.5 459 L 342 459.5 L 321.5 460 L 321.5 459 Z " /><path fill="rgb(102,184,186)" stroke="rgb(102,184,186)" stroke-width="1" opacity="1" d="M 707.5 459 L 711 459.5 L 707.5 460 L 707.5 459 Z " /><path fill="rgb(102,184,186)" stroke="rgb(102,184,186)" stroke-width="1" opacity="1" d="M 727.5 459 L 734 459.5 L 727.5 460 L 727.5 459 Z " /><path fill="rgb(102,184,186)" stroke="rgb(102,184,186)" stroke-width="1" opacity="1" d="M 735.5 459 L 746.5 459 L 747 459.5 L 747 493.5 L 746 493.5 L 745.5 460 L 743.5 461 Q 741.8 458.3 735.5 460 L 735.5 459 Z " /><path fill="rgb(102,184,186)" stroke="rgb(102,184,186)" stroke-width="1" opacity="1" d="M 934.5 493 L 935 515.5 L 934 515.5 L 934.5 493 Z " /><path fill="rgb(102,184,186)" stroke="rgb(102,184,186)" stroke-width="1" opacity="1" d="M 261 496 L 270 496.5 L 261.5 498 L 261 496 Z " /><path fill="rgb(102,184,186)" stroke="rgb(102,184,186)" stroke-width="1" opacity="1" d="M 272.5 496 L 278 496.5 L 272.5 497 L 272.5 496 Z " /><path fill="rgb(102,184,186)" stroke="rgb(102,184,186)" stroke-width="1" opacity="1" d="M 279.5 496 L 296 496.5 L 279.5 497 L 279.5 496 Z " /><path fill="rgb(102,184,186)" stroke="rgb(102,184,186)" stroke-width="1" opacity="1" d="M 747.5 496 L 789 496.5 L 788 497.5 L 787.5 532 L 787 497 L 747.5 497 L 747.5 496 Z " /><path fill="rgb(102,184,186)" stroke="rgb(102,184,186)" stroke-width="1" opacity="1" d="M 195.5 534 L 196 571.5 L 195 571.5 L 195.5 534 Z " /><path fill="rgb(102,184,186)" stroke="rgb(102,184,186)" stroke-width="1" opacity="1" d="M 248.5 535 L 256 535.5 L 248.5 536 L 248.5 535 Z " /><path fill="rgb(102,184,186)" stroke="rgb(102,184,186)" stroke-width="1" opacity="1" d="M 819.5 535 L 829 535.5 L 828 536.5 L 827.5 572 L 827 536 L 819.5 536 L 819.5 535 Z " /><path fill="rgb(102,184,186)" stroke="rgb(102,184,186)" stroke-width="1" opacity="1" d="M 934.5 535 L 935 539.5 L 934 539.5 L 934.5 535 Z " /><path fill="rgb(102,184,186)" stroke="rgb(102,184,186)" stroke-width="1" opacity="1" d="M 137.5 540 L 138 570 L 147 570.5 L 138.5 571 L 137 569.5 L 137.5 540 Z " /><path fill="rgb(102,184,186)" stroke="rgb(102,184,186)" stroke-width="1" opacity="1" d="M 898.5 570 L 901 570.5 L 898.5 571 L 898.5 570 Z " /><path fill="rgb(102,184,186)" stroke="rgb(102,184,186)" stroke-width="1" opacity="1" d="M 864.5 572 L 865 632.5 L 864 632.5 L 864.5 572 Z " /><path fill="rgb(102,184,186)" stroke="rgb(102,184,186)" stroke-width="1" opacity="1" d="M 827.5 573 L 828.5 575 L 827.5 573 Z " /><path fill="rgb(102,184,186)" stroke="rgb(102,184,186)" stroke-width="1" opacity="1" d="M 196.5 574 L 208 574.5 L 196.5 575 L 196.5 574 Z " /><path fill="rgb(102,184,186)" stroke="rgb(102,184,186)" stroke-width="1" opacity="1" d="M 158.5 604 L 159 614.5 L 158 614.5 L 158.5 604 Z " /><path fill="rgb(102,184,186)" stroke="rgb(102,184,186)" stroke-width="1" opacity="1" d="M 864.5 642 L 865 838.5 L 863.5 840 L 844.5 840 L 844.5 839 L 863.5 839 L 864 838.5 L 864.5 642 Z " /><path fill="rgb(102,184,186)" stroke="rgb(102,184,186)" stroke-width="1" opacity="1" d="M 158.5 836 L 159 838.5 L 158 838.5 L 158.5 836 Z " /><path fill="rgb(102,184,186)" stroke="rgb(102,184,186)" stroke-width="1" opacity="1" d="M 831.5 839 L 837 839.5 L 831.5 840 L 831.5 839 Z " /><path fill="rgb(102,184,186)" stroke="rgb(102,184,186)" stroke-width="1" opacity="1" d="M 200.5 872 L 225 872.5 L 200.5 873 L 200.5 872 Z " /><path fill="rgb(102,184,186)" stroke="rgb(102,184,186)" stroke-width="1" opacity="1" d="M 227.5 872 L 252 872.5 L 227.5 873 L 227.5 872 Z " /><path fill="rgb(102,184,186)" stroke="rgb(102,184,186)" stroke-width="1" opacity="1" d="M 269.5 872 L 317 872.5 L 269.5 873 L 269.5 872 Z " /><path fill="rgb(102,184,186)" stroke="rgb(102,184,186)" stroke-width="1" opacity="1" d="M 322.5 872 L 462 872.5 L 322.5 873 L 322.5 872 Z " /><path fill="rgb(102,184,186)" stroke="rgb(102,184,186)" stroke-width="1" opacity="1" d="M 463.5 872 L 516 872.5 L 463.5 873 L 463.5 872 Z " /><path fill="rgb(102,184,186)" stroke="rgb(102,184,186)" stroke-width="1" opacity="1" d="M 519.5 872 L 536 872.5 L 519.5 873 L 519.5 872 Z " /><path fill="rgb(102,184,186)" stroke="rgb(102,184,186)" stroke-width="1" opacity="1" d="M 538.5 872 L 765 872.5 L 538.5 873 L 538.5 872 Z " /><path fill="rgb(102,184,186)" stroke="rgb(102,184,186)" stroke-width="1" opacity="1" d="M 770.5 872 L 805 872.5 L 770.5 873 L 770.5 872 Z " /><path fill="rgb(102,184,186)" stroke="rgb(102,184,186)" stroke-width="1" opacity="1" d="M 815.5 872 L 830 872.5 L 815.5 873 L 815.5 872 Z " /><path fill="rgb(65,150,167)" stroke="rgb(65,150,167)" stroke-width="1" opacity="1" d="M 463.5 160 L 481 160.5 L 463.5 161 L 463.5 160 Z " /><path fill="rgb(65,150,167)" stroke="rgb(65,150,167)" stroke-width="1" opacity="1" d="M 583.5 161 L 604 161.5 L 583.5 162 L 583.5 161 Z " /><path fill="rgb(65,150,167)" stroke="rgb(65,150,167)" stroke-width="1" opacity="1" d="M 462.5 165 L 463 168.5 L 462 168.5 L 462.5 165 Z " /><path fill="rgb(65,150,167)" stroke="rgb(65,150,167)" stroke-width="1" opacity="1" d="M 462.5 183 L 463 191.5 L 462 191.5 L 462.5 183 Z " /><path fill="rgb(65,150,167)" stroke="rgb(65,150,167)" stroke-width="1" opacity="1" d="M 415.5 197 L 420 197.5 L 415.5 198 L 415.5 197 Z " /><path fill="rgb(65,150,167)" stroke="rgb(65,150,167)" stroke-width="1" opacity="1" d="M 424.5 197 L 430 197.5 L 424.5 198 L 424.5 197 Z " /><path fill="rgb(65,150,167)" stroke="rgb(65,150,167)" stroke-width="1" opacity="1" d="M 381.5 199 L 382 208.5 L 381 208.5 L 381.5 199 Z " /><path fill="rgb(65,150,167)" stroke="rgb(65,150,167)" stroke-width="1" opacity="1" d="M 655.5 202 L 656 215.5 L 655 215.5 L 655.5 202 Z " /><path fill="rgb(65,150,167)" stroke="rgb(65,150,167)" stroke-width="1" opacity="1" d="M 655.5 228 L 656 234.5 L 655 234.5 L 655.5 228 Z " /><path fill="rgb(65,150,167)" stroke="rgb(65,150,167)" stroke-width="1" opacity="1" d="M 504 272 L 542 273 L 542.5 309 L 543.5 308 L 582.5 308 L 582.5 309 L 570 309.5 L 581 310 L 581.5 326 L 582.5 313 L 583 346 L 623 346 L 623 383.5 L 624.5 383 L 662.5 383 L 664 384.5 L 664 420 L 704.5 420 L 704.5 421 L 698 421.5 L 704 422 L 704.5 428 L 705.5 423 L 706 439.5 L 705 440.5 L 705 451.5 L 706 455.5 Q 703.7 456.8 706.5 458 L 746.5 458 L 748 459.5 L 748 495.5 L 747 496.5 L 787 497 L 787.5 532 L 788.5 497 L 789 534 L 829 534.5 L 819 535.5 L 827 536 L 827.5 572 L 828.5 536 L 829 573.5 L 826.5 574 L 824.5 573 L 823.5 574 L 787 574 L 787 535 L 744.5 535 L 744 531.5 L 745 529.5 L 745 527.5 L 745 499.5 L 744 496 L 701 496 L 701 460.5 L 699.5 459 L 691.5 459 L 689.5 459 L 673.5 459 L 671.5 460 L 668.5 459 Q 667 461.5 661.5 460 L 659.5 460 L 658 459.5 L 658 422 L 618 422 L 618 386 L 578 386 L 578 348 L 470 348 L 470 386 L 431 386 L 431 420.5 L 429.5 422 L 389 422 Q 390.8 424.4 390 430.5 L 389 432.5 L 389 434.5 L 390 436.5 L 389 437.5 L 389 450.5 L 390 451.5 L 390 459 L 350.5 459 L 349 460.5 L 349 496 L 307 496 L 307 533.5 L 306.5 534 L 299.5 534 L 298.5 535 L 262 535 L 262 499.5 L 261 498.5 L 262.5 497 L 270 496.5 L 261 495.5 L 302 495 L 302.5 460 L 303.5 495 L 304 460 L 310 459.5 L 303 458.5 L 343 458 L 343.5 424 L 344.5 431 L 345 421 L 343 420.5 L 379.5 420 L 381.5 421 L 384 418.5 L 384 385.5 L 385 384.5 L 384.5 383 L 424 383 L 424 346.5 L 425 346.5 L 425.5 383 L 426 346 L 428.5 347 L 443.5 347 L 446.5 346 L 453.5 348 L 457.5 347 L 459.5 347 L 464 346 L 465 339.5 L 465 310.5 L 466 309.5 L 464 308.5 L 501.5 308 L 503 306.5 L 502 305.5 L 502 279.5 L 503 279.5 L 503.5 288 L 504 272 Z M 504 289 L 503 306 L 504 306 L 504 289 Z M 485 309 L 485 310 L 498 310 L 485 309 Z M 544 309 L 544 310 L 561 310 L 544 309 Z M 585 347 L 585 348 L 587 348 L 585 347 Z M 609 347 L 609 348 L 611 348 L 609 347 Z M 622 347 L 621 353 L 622 353 L 622 347 Z M 622 362 L 621 384 L 622 384 L 622 362 Z M 399 384 L 399 385 L 422 385 L 399 384 Z M 625 384 L 625 385 L 662 385 L 662 419 L 663 419 L 663 384 L 625 384 Z M 665 421 L 665 422 L 669 422 L 665 421 Z M 312 459 L 312 460 L 314 460 L 312 459 Z M 322 459 L 322 460 L 342 460 L 322 459 Z M 708 459 L 708 460 L 711 460 L 708 459 Z M 728 459 L 728 460 L 734 460 L 728 459 Z M 736 459 L 736 460 Q 742 458 744 461 L 746 460 L 746 494 L 747 494 L 747 460 L 747 459 L 736 459 Z M 273 496 L 273 497 L 278 497 L 273 496 Z M 280 496 L 280 497 L 296 497 L 280 496 Z " /><path fill="rgb(65,150,167)" stroke="rgb(65,150,167)" stroke-width="1" opacity="1" d="M 301.5 308 L 302 318.5 L 301 318.5 L 301.5 308 Z " /><path fill="rgb(65,150,167)" stroke="rgb(65,150,167)" stroke-width="1" opacity="1" d="M 301.5 325 L 302 335.5 L 301 335.5 L 301.5 325 Z " /><path fill="rgb(65,150,167)" stroke="rgb(65,150,167)" stroke-width="1" opacity="1" d="M 260.5 375 L 261 382.5 L 260 382.5 L 260.5 375 Z " /><path fill="rgb(65,150,167)" stroke="rgb(65,150,167)" stroke-width="1" opacity="1" d="M 156.5 420 L 177 420.5 L 156.5 421 L 156.5 420 Z " /><path fill="rgb(65,150,167)" stroke="rgb(65,150,167)" stroke-width="1" opacity="1" d="M 180.5 423 L 181 426.5 L 180 426.5 L 180.5 423 Z " /><path fill="rgb(65,150,167)" stroke="rgb(65,150,167)" stroke-width="1" opacity="1" d="M 180.5 431 L 181 455.5 L 180 455.5 L 180.5 431 Z " /><path fill="rgb(65,150,167)" stroke="rgb(65,150,167)" stroke-width="1" opacity="1" d="M 756.5 495 L 788 495.5 L 756.5 496 L 756.5 495 Z " /><path fill="rgb(65,150,167)" stroke="rgb(65,150,167)" stroke-width="1" opacity="1" d="M 194.5 534 L 195.5 572 L 196 534 L 220.5 534 L 221.5 535 L 222.5 534 L 260.5 534 L 260.5 535 L 257 535.5 L 258 536.5 L 258 569.5 L 257 574 L 234.5 575 L 233.5 574 L 195 574 L 194 571.5 L 194.5 534 Z M 249 535 L 249 536 L 256 536 L 249 535 Z " /><path fill="rgb(65,150,167)" stroke="rgb(65,150,167)" stroke-width="1" opacity="1" d="M 311.5 535 L 431 535.5 L 311.5 536 L 311.5 535 Z " /><path fill="rgb(65,150,167)" stroke="rgb(65,150,167)" stroke-width="1" opacity="1" d="M 436.5 535 L 437 563.5 L 436 563.5 L 436.5 535 Z " /><path fill="rgb(65,150,167)" stroke="rgb(65,150,167)" stroke-width="1" opacity="1" d="M 545.5 602 L 548 602.5 L 545.5 603 L 545.5 602 Z " /><path fill="rgb(65,150,167)" stroke="rgb(65,150,167)" stroke-width="1" opacity="1" d="M 706.5 635 L 707 653.5 L 706 653.5 L 706.5 635 Z " /><path fill="rgb(65,150,167)" stroke="rgb(65,150,167)" stroke-width="1" opacity="1" d="M 706.5 656 L 707 675.5 L 706 675.5 L 706.5 656 Z " /><path fill="rgb(65,150,167)" stroke="rgb(65,150,167)" stroke-width="1" opacity="1" d="M 436.5 679 L 437 698.5 L 436 698.5 L 436.5 679 Z " /><path fill="rgb(65,150,167)" stroke="rgb(65,150,167)" stroke-width="1" opacity="1" d="M 311.5 709 L 435 709.5 L 311.5 710 L 311.5 709 Z " /><path fill="rgb(65,150,167)" stroke="rgb(65,150,167)" stroke-width="1" opacity="1" d="M 161.5 839 L 168 839.5 L 161.5 840 L 161.5 839 Z " /><path fill="rgb(65,150,167)" stroke="rgb(65,150,167)" stroke-width="1" opacity="1" d="M 192.5 840 L 193 870.5 L 192 870.5 L 192.5 840 Z " /><path fill="rgb(212,65,87)" stroke="rgb(212,65,87)" stroke-width="1" opacity="1" d="M 544 161 L 546 161.5 L 544 162.5 L 544 161 Z " /><path fill="rgb(212,65,87)" stroke="rgb(212,65,87)" stroke-width="1" opacity="1" d="M 549.5 161 L 554 161.5 L 549.5 162 L 549.5 161 Z " /><path fill="rgb(212,65,87)" stroke="rgb(212,65,87)" stroke-width="1" opacity="1" d="M 568.5 161 L 571 161.5 L 568.5 162 L 568.5 161 Z " /><path fill="rgb(212,65,87)" stroke="rgb(212,65,87)" stroke-width="1" opacity="1" d="M 573.5 161 L 577 161.5 L 573.5 162 L 573.5 161 Z " /><path fill="rgb(212,65,87)" stroke="rgb(212,65,87)" stroke-width="1" opacity="1" d="M 577.5 165 L 578 176.5 L 577 176.5 L 577.5 165 Z " /><path fill="rgb(212,65,87)" stroke="rgb(212,65,87)" stroke-width="1" opacity="1" d="M 577.5 179 L 578 197.5 L 577 197.5 L 577.5 179 Z " /><path fill="rgb(212,65,87)" stroke="rgb(212,65,87)" stroke-width="1" opacity="1" d="M 544.5 185 L 545 196.5 L 544 196.5 L 544.5 185 Z " /><path fill="rgb(212,65,87)" stroke="rgb(212,65,87)" stroke-width="1" opacity="1" d="M 566.5 195 L 567.5 197 L 566.5 195 Z " /><path fill="rgb(212,65,87)" stroke="rgb(212,65,87)" stroke-width="1" opacity="1" d="M 505.5 198 L 508 198.5 L 505.5 199 L 505.5 198 Z " /><path fill="rgb(212,65,87)" stroke="rgb(212,65,87)" stroke-width="1" opacity="1" d="M 592.5 198 L 611 198.5 L 592.5 199 L 592.5 198 Z " /><path fill="rgb(212,65,87)" stroke="rgb(212,65,87)" stroke-width="1" opacity="1" d="M 615.5 205 L 616 234.5 L 617 235.5 L 615 236 L 615.5 205 Z " /><path fill="rgb(212,65,87)" stroke="rgb(212,65,87)" stroke-width="1" opacity="1" d="M 502.5 233 L 514 233.5 L 502 234 L 501.5 271 L 501 234.5 L 502.5 233 Z " /><path fill="rgb(212,65,87)" stroke="rgb(212,65,87)" stroke-width="1" opacity="1" d="M 518.5 233 L 521 233.5 L 518.5 234 L 518.5 233 Z " /><path fill="rgb(212,65,87)" stroke="rgb(212,65,87)" stroke-width="1" opacity="1" d="M 423.5 235 L 442 235.5 L 423 236 L 422.5 268 L 422 236.5 L 423.5 235 Z " /><path fill="rgb(212,65,87)" stroke="rgb(212,65,87)" stroke-width="1" opacity="1" d="M 448.5 235 L 451 235.5 L 448.5 236 L 448.5 235 Z " /><path fill="rgb(212,65,87)" stroke="rgb(212,65,87)" stroke-width="1" opacity="1" d="M 453.5 235 L 456 235.5 L 453.5 236 L 453.5 235 Z " /><path fill="rgb(212,65,87)" stroke="rgb(212,65,87)" stroke-width="1" opacity="1" d="M 457.5 235 L 461 235.5 L 457.5 236 L 457.5 235 Z " /><path fill="rgb(212,65,87)" stroke="rgb(212,65,87)" stroke-width="1" opacity="1" d="M 627.5 235 L 652 235.5 L 627.5 236 L 627.5 235 Z " /><path fill="rgb(212,65,87)" stroke="rgb(212,65,87)" stroke-width="1" opacity="1" d="M 707.5 235 L 708 237.5 L 707 237.5 L 707.5 235 Z " /><path fill="rgb(212,65,87)" stroke="rgb(212,65,87)" stroke-width="1" opacity="1" d="M 788.5 235 L 789 254.5 L 788 254.5 L 788.5 235 Z " /><path fill="rgb(212,65,87)" stroke="rgb(212,65,87)" stroke-width="1" opacity="1" d="M 654.5 237 L 655 271.5 L 656 272.5 L 654 271.5 L 654.5 237 Z " /><path fill="rgb(212,65,87)" stroke="rgb(212,65,87)" stroke-width="1" opacity="1" d="M 544.5 239 L 545 243.5 L 544 243.5 L 544.5 239 Z " /><path fill="rgb(212,65,87)" stroke="rgb(212,65,87)" stroke-width="1" opacity="1" d="M 544.5 249 L 545 252.5 L 544 252.5 L 544.5 249 Z " /><path fill="rgb(212,65,87)" stroke="rgb(212,65,87)" stroke-width="1" opacity="1" d="M 707.5 262 L 708 277.5 L 707 277.5 L 707.5 262 Z " /><path fill="rgb(212,65,87)" stroke="rgb(212,65,87)" stroke-width="1" opacity="1" d="M 544.5 265 L 545 271 L 581 271.5 L 545.5 272 Q 542.4 270.4 544.5 265 Z " /><path fill="rgb(212,65,87)" stroke="rgb(212,65,87)" stroke-width="1" opacity="1" d="M 463.5 271 L 498 271.5 L 463.5 272 L 463.5 271 Z " /><path fill="rgb(212,65,87)" stroke="rgb(212,65,87)" stroke-width="1" opacity="1" d="M 383.5 272 L 395 272.5 L 383.5 273 L 383.5 272 Z " /><path fill="rgb(212,65,87)" stroke="rgb(212,65,87)" stroke-width="1" opacity="1" d="M 396.5 272 L 399 272.5 L 396.5 273 L 396.5 272 Z " /><path fill="rgb(212,65,87)" stroke="rgb(212,65,87)" stroke-width="1" opacity="1" d="M 658.5 272 L 691 272 L 691 286.5 L 690 286.5 L 690 273 L 658.5 273 L 658.5 272 Z " /><path fill="rgb(212,65,87)" stroke="rgb(212,65,87)" stroke-width="1" opacity="1" d="M 462.5 273 L 463 306.5 L 462 306.5 L 462.5 273 Z " /><path fill="rgb(212,65,87)" stroke="rgb(212,65,87)" stroke-width="1" opacity="1" d="M 583.5 277 L 584 307 L 624 307 L 624 342.5 L 623 342.5 L 623 308 L 584.5 308 L 583 306.5 L 583.5 277 Z " /><path fill="rgb(212,65,87)" stroke="rgb(212,65,87)" stroke-width="1" opacity="1" d="M 690.5 289 L 691 300.5 L 690 300.5 L 690.5 289 Z " /><path fill="rgb(212,65,87)" stroke="rgb(212,65,87)" stroke-width="1" opacity="1" d="M 707.5 293 L 708 300.5 L 707 300.5 L 707.5 293 Z " /><path fill="rgb(212,65,87)" stroke="rgb(212,65,87)" stroke-width="1" opacity="1" d="M 788.5 298 L 789 306.5 L 788 306.5 L 788.5 298 Z " /><path fill="rgb(212,65,87)" stroke="rgb(212,65,87)" stroke-width="1" opacity="1" d="M 423.5 307 L 426 307.5 L 423.5 308 L 423.5 307 Z " /><path fill="rgb(212,65,87)" stroke="rgb(212,65,87)" stroke-width="1" opacity="1" d="M 456.5 307 L 461 307.5 L 456.5 308 L 456.5 307 Z " /><path fill="rgb(212,65,87)" stroke="rgb(212,65,87)" stroke-width="1" opacity="1" d="M 343.5 308 L 382 308.5 L 343 309 L 342.5 335 L 342 309.5 L 343.5 308 Z " /><path fill="rgb(212,65,87)" stroke="rgb(212,65,87)" stroke-width="1" opacity="1" d="M 788.5 309 L 789 342.5 L 788 342.5 L 788.5 309 Z " /><path fill="rgb(212,65,87)" stroke="rgb(212,65,87)" stroke-width="1" opacity="1" d="M 423.5 331 L 424 343.5 L 422.5 345 L 384.5 345 L 384.5 344 L 422.5 344 L 423 343.5 L 423.5 331 Z " /><path fill="rgb(212,65,87)" stroke="rgb(212,65,87)" stroke-width="1" opacity="1" d="M 625.5 344 L 661 344.5 L 625.5 345 L 625.5 344 Z " /><path fill="rgb(212,65,87)" stroke="rgb(212,65,87)" stroke-width="1" opacity="1" d="M 664.5 345 L 665 382 L 705 382.5 L 665.5 383 L 664 381.5 L 664.5 345 Z " /><path fill="rgb(212,65,87)" stroke="rgb(212,65,87)" stroke-width="1" opacity="1" d="M 302.5 346 L 306 346.5 L 302.5 347 L 302.5 346 Z " /><path fill="rgb(212,65,87)" stroke="rgb(212,65,87)" stroke-width="1" opacity="1" d="M 319.5 346 L 324 346.5 L 319.5 347 L 319.5 346 Z " /><path fill="rgb(212,65,87)" stroke="rgb(212,65,87)" stroke-width="1" opacity="1" d="M 382.5 347 L 383 351.5 L 382 351.5 L 382.5 347 Z " /><path fill="rgb(212,65,87)" stroke="rgb(212,65,87)" stroke-width="1" opacity="1" d="M 382.5 353 L 383 362.5 L 382 362.5 L 382.5 353 Z " /><path fill="rgb(212,65,87)" stroke="rgb(212,65,87)" stroke-width="1" opacity="1" d="M 382.5 364 L 383 379.5 L 382 379.5 L 382.5 364 Z " /><path fill="rgb(212,65,87)" stroke="rgb(212,65,87)" stroke-width="1" opacity="1" d="M 345.5 382 L 380 382.5 L 345.5 383 L 345.5 382 Z " /><path fill="rgb(212,65,87)" stroke="rgb(212,65,87)" stroke-width="1" opacity="1" d="M 788.5 383 L 793.5 384 L 794.5 383 L 823 383 L 823.5 390 L 824.5 384 L 825 420 Q 822.9 421.6 817.5 421 L 815.5 421 L 812.5 420 L 810.5 421 L 801.5 420 L 799.5 421 L 791.5 421 Q 789.3 421.8 790 419.5 L 789 418.5 L 789 385 L 792 384.5 Q 787.6 384.9 788.5 383 Z " /><path fill="rgb(212,65,87)" stroke="rgb(212,65,87)" stroke-width="1" opacity="1" d="M 264.5 384 L 278 384.5 L 264.5 385 L 264.5 384 Z " /><path fill="rgb(212,65,87)" stroke="rgb(212,65,87)" stroke-width="1" opacity="1" d="M 342.5 417 L 343 419.5 L 342 419.5 L 342.5 417 Z " /><path fill="rgb(212,65,87)" stroke="rgb(212,65,87)" stroke-width="1" opacity="1" d="M 746.5 419 L 749 420.5 L 749 456.5 L 749.5 457 L 757.5 457 L 757.5 458 L 748.5 458 L 748 457.5 L 748 420.5 L 746.5 420 L 746.5 419 Z " /><path fill="rgb(212,65,87)" stroke="rgb(212,65,87)" stroke-width="1" opacity="1" d="M 222 421 L 224 421.5 L 223 422.5 L 222.5 442 L 222 421 Z " /><path fill="rgb(212,65,87)" stroke="rgb(212,65,87)" stroke-width="1" opacity="1" d="M 301.5 421 L 302 450.5 L 301 450.5 L 301.5 421 Z " /><path fill="rgb(212,65,87)" stroke="rgb(212,65,87)" stroke-width="1" opacity="1" d="M 832 421 L 860 421.5 L 860 423.5 L 860.5 427 L 861.5 422 L 862 458.5 L 860.5 458 L 858.5 459 L 845.5 458 L 843.5 459 L 839.5 459 L 835.5 458 L 832.5 459 L 828.5 458 Q 827.3 460.3 826 457.5 L 826 423.5 L 827.5 423 L 829.5 423 Q 833.3 424 832 421 Z " /><path fill="rgb(212,65,87)" stroke="rgb(212,65,87)" stroke-width="1" opacity="1" d="M 301.5 452 L 302 454.5 L 301 454.5 L 301.5 452 Z " /><path fill="rgb(212,65,87)" stroke="rgb(212,65,87)" stroke-width="1" opacity="1" d="M 261.5 457 L 301 457.5 L 261.5 458 L 261.5 457 Z " /><path fill="rgb(212,65,87)" stroke="rgb(212,65,87)" stroke-width="1" opacity="1" d="M 759.5 457 L 767 457.5 L 759.5 458 L 759.5 457 Z " /><path fill="rgb(212,65,87)" stroke="rgb(212,65,87)" stroke-width="1" opacity="1" d="M 768.5 457 L 788.5 457 L 790 458.5 L 789.5 491 L 789 458 L 768.5 458 L 768.5 457 Z " /><path fill="rgb(212,65,87)" stroke="rgb(212,65,87)" stroke-width="1" opacity="1" d="M 183.5 458 L 200 458.5 L 183.5 459 L 183.5 458 Z " /><path fill="rgb(212,65,87)" stroke="rgb(212,65,87)" stroke-width="1" opacity="1" d="M 201.5 458 L 219 458.5 L 201.5 459 L 201.5 458 Z " /><path fill="rgb(212,65,87)" stroke="rgb(212,65,87)" stroke-width="1" opacity="1" d="M 863.5 458 L 868 458.5 L 863.5 459 L 863.5 458 Z " /><path fill="rgb(212,65,87)" stroke="rgb(212,65,87)" stroke-width="1" opacity="1" d="M 888.5 458 L 897 458.5 L 888.5 459 L 888.5 458 Z " /><path fill="rgb(212,65,87)" stroke="rgb(212,65,87)" stroke-width="1" opacity="1" d="M 898.5 466 L 899 534 L 897 533.5 L 898 532.5 L 898.5 466 Z " /><path fill="rgb(212,65,87)" stroke="rgb(212,65,87)" stroke-width="1" opacity="1" d="M 223.5 494 L 226 494.5 L 222.5 496 L 223.5 494 Z " /><path fill="rgb(212,65,87)" stroke="rgb(212,65,87)" stroke-width="1" opacity="1" d="M 791.5 494 L 794 494.5 L 791.5 495 L 791.5 494 Z " /><path fill="rgb(212,65,87)" stroke="rgb(212,65,87)" stroke-width="1" opacity="1" d="M 806.5 494 L 809 494.5 L 806.5 495 L 806.5 494 Z " /><path fill="rgb(212,65,87)" stroke="rgb(212,65,87)" stroke-width="1" opacity="1" d="M 815.5 494 Q 818.8 492.9 818 495.5 L 816.5 495 L 815.5 494 Z " /><path fill="rgb(212,65,87)" stroke="rgb(212,65,87)" stroke-width="1" opacity="1" d="M 828.5 495 L 830 495.5 L 830 533 L 865.5 533 L 867.5 533 L 895 533.5 L 830.5 534 L 829 532.5 L 829 496.5 L 828.5 495 Z " /><path fill="rgb(212,65,87)" stroke="rgb(212,65,87)" stroke-width="1" opacity="1" d="M 141 496 L 156 496.5 L 142.5 497 L 141.5 498 L 141 496 Z " /><path fill="rgb(212,65,87)" stroke="rgb(212,65,87)" stroke-width="1" opacity="1" d="M 166.5 496 L 173 496.5 L 166.5 497 L 166.5 496 Z " /><path fill="rgb(212,65,87)" stroke="rgb(212,65,87)" stroke-width="1" opacity="1" d="M 222.5 500 L 223 527.5 L 222 527.5 L 222.5 500 Z " /><path fill="rgb(212,65,87)" stroke="rgb(212,65,87)" stroke-width="1" opacity="1" d="M 141.5 516 L 142 524.5 L 141 524.5 L 141.5 516 Z " /><path fill="rgb(212,65,87)" stroke="rgb(212,65,87)" stroke-width="1" opacity="1" d="M 141.5 526 L 142 528.5 L 141 528.5 L 141.5 526 Z " /><path fill="rgb(212,65,87)" stroke="rgb(212,65,87)" stroke-width="1" opacity="1" d="M 222.5 529 L 223 532.5 L 222 532.5 L 222.5 529 Z " /><path fill="rgb(212,65,87)" stroke="rgb(212,65,87)" stroke-width="1" opacity="1" d="M 195.5 532 L 220.5 532 L 221 534 L 218.5 533 L 209.5 534 L 207.5 533 L 202.5 534 L 200.5 533 L 197.5 534 L 195.5 533 L 194.5 534 L 143.5 534 L 143.5 533 L 194.5 533 L 195.5 532 Z " /><path fill="rgb(212,65,87)" stroke="rgb(212,65,87)" stroke-width="1" opacity="1" d="M 552 603 L 672 603 L 672 796.5 L 672.5 797 L 705.5 797 L 705.5 798 L 672.5 798 L 671.5 797 L 562.5 797 L 556.5 797 L 551.5 798 L 552 796.5 L 552 603 Z " /><path fill="rgb(212,65,87)" stroke="rgb(212,65,87)" stroke-width="1" opacity="1" d="M 525.5 797 L 550 797.5 L 525.5 798 L 525.5 797 Z " /><path fill="rgb(212,65,87)" stroke="rgb(212,65,87)" stroke-width="1" opacity="1" d="M 828.5 797 L 829 826.5 L 828 826.5 L 828.5 797 Z " /><path fill="rgb(212,65,87)" stroke="rgb(212,65,87)" stroke-width="1" opacity="1" d="M 707.5 798 L 745 798.5 L 707.5 799 L 707.5 798 Z " /><path fill="rgb(212,65,87)" stroke="rgb(212,65,87)" stroke-width="1" opacity="1" d="M 749.5 798 L 752 798.5 L 749.5 799 L 749.5 798 Z " /><path fill="rgb(212,65,87)" stroke="rgb(212,65,87)" stroke-width="1" opacity="1" d="M 753.5 798 L 757 798.5 L 753.5 799 L 753.5 798 Z " /><path fill="rgb(212,65,87)" stroke="rgb(212,65,87)" stroke-width="1" opacity="1" d="M 764.5 798 L 767 798.5 L 764.5 799 L 764.5 798 Z " /><path fill="rgb(212,65,87)" stroke="rgb(212,65,87)" stroke-width="1" opacity="1" d="M 772.5 798 L 781 798.5 L 772.5 799 L 772.5 798 Z " /><path fill="rgb(212,65,87)" stroke="rgb(212,65,87)" stroke-width="1" opacity="1" d="M 782.5 798 L 785 798.5 L 782.5 799 L 782.5 798 Z " /><path fill="rgb(212,65,87)" stroke="rgb(212,65,87)" stroke-width="1" opacity="1" d="M 517.5 836 L 706 836.5 L 517.5 837 L 517.5 836 Z " /><path fill="rgb(212,65,87)" stroke="rgb(212,65,87)" stroke-width="1" opacity="1" d="M 707.5 836 L 721 836.5 L 707.5 837 L 707.5 836 Z " /><path fill="rgb(212,65,87)" stroke="rgb(212,65,87)" stroke-width="1" opacity="1" d="M 738.5 836 L 743 836.5 L 738.5 837 L 738.5 836 Z " /><path fill="rgb(212,65,87)" stroke="rgb(212,65,87)" stroke-width="1" opacity="1" d="M 754.5 836 L 827 836.5 L 754.5 837 L 754.5 836 Z " /><path fill="rgb(247,232,201)" stroke="rgb(247,232,201)" stroke-width="1" opacity="1" d="M 461.5 129 L 462 154.5 L 461 154.5 L 461.5 129 Z " /><path fill="rgb(247,232,201)" stroke="rgb(247,232,201)" stroke-width="1" opacity="1" d="M 543.5 161 L 544 164 L 540 163 Q 538.9 165.7 541.5 165 Q 544.3 166.3 542 167.5 L 543 172.5 L 543 197 L 470 196.5 L 504 195.5 L 480.5 195 L 479.5 194 L 475.5 195 L 471 194.5 Q 471.8 192.3 469.5 193 L 465.5 195 L 465.5 194 L 468 193.5 L 465 192.5 L 466 190.5 L 465 185.5 L 465 183.5 L 465 174.5 L 464 173.5 L 466 164.5 L 465.5 163 L 468.5 162 Q 470 164.5 475.5 163 L 478.5 162 L 490.5 162 L 492.5 163 L 494.5 162 Q 495.7 164.2 500.5 163 L 503.5 162 L 505.5 163 L 507.5 162 L 509.5 163 L 511.5 162 L 513.5 162 L 518.5 163 L 520.5 162 L 522.5 162 L 542.5 162 L 543.5 161 Z M 506 195 L 506 196 L 509 196 L 506 195 Z " /><path fill="rgb(247,232,201)" stroke="rgb(247,232,201)" stroke-width="1" opacity="1" d="M 726.5 161 L 748 161.5 L 726.5 162 L 726.5 161 Z " /><path fill="rgb(247,232,201)" stroke="rgb(247,232,201)" stroke-width="1" opacity="1" d="M 778.5 161 L 785 161.5 L 778.5 162 L 778.5 161 Z " /><path fill="rgb(247,232,201)" stroke="rgb(247,232,201)" stroke-width="1" opacity="1" d="M 789.5 161 L 797 161.5 L 789.5 162 L 789.5 161 Z " /><path fill="rgb(247,232,201)" stroke="rgb(247,232,201)" stroke-width="1" opacity="1" d="M 616.5 164 L 617 179.5 L 616 179.5 L 616.5 164 Z " /><path fill="rgb(247,232,201)" stroke="rgb(247,232,201)" stroke-width="1" opacity="1" d="M 797.5 187 L 806 188.5 L 798.5 189 L 797.5 187 Z " /><path fill="rgb(247,232,201)" stroke="rgb(247,232,201)" stroke-width="1" opacity="1" d="M 824.5 188 L 825.5 190 L 824.5 188 Z " /><path fill="rgb(247,232,201)" stroke="rgb(247,232,201)" stroke-width="1" opacity="1" d="M 616.5 193 L 617 197.5 L 616 197.5 L 616.5 193 Z " /><path fill="rgb(247,232,201)" stroke="rgb(247,232,201)" stroke-width="1" opacity="1" d="M 464.5 196 L 469 196.5 L 464.5 197 L 464.5 196 Z " /><path fill="rgb(247,232,201)" stroke="rgb(247,232,201)" stroke-width="1" opacity="1" d="M 787.5 196 L 788 199.5 L 787 199.5 L 786 197.5 L 787.5 196 Z " /><path fill="rgb(247,232,201)" stroke="rgb(247,232,201)" stroke-width="1" opacity="1" d="M 435 199 L 438.5 201 L 441.5 200 L 450.5 200 L 451.5 201 L 456.5 200 L 457.5 201 L 460 199.5 L 460.5 202 L 461.5 199 L 462 234 L 456.5 235 L 453.5 234 L 451.5 235 L 450.5 234 L 425.5 234 L 423.5 235 L 422 233.5 L 422 223.5 L 423 223.5 L 423.5 234 L 424 206.5 L 425 204.5 L 425 202.5 L 425.5 200 L 428.5 201 L 430.5 200 L 432.5 200 L 434.5 201 L 435 199 Z " /><path fill="rgb(247,232,201)" stroke="rgb(247,232,201)" stroke-width="1" opacity="1" d="M 342.5 234 L 377 234.5 L 342 235 L 341.5 237 L 341 235.5 L 342.5 234 Z " /><path fill="rgb(247,232,201)" stroke="rgb(247,232,201)" stroke-width="1" opacity="1" d="M 383.5 235 L 385 235.5 L 383 236 L 382.5 269 L 382 236.5 L 383.5 235 Z " /><path fill="rgb(247,232,201)" stroke="rgb(247,232,201)" stroke-width="1" opacity="1" d="M 420.5 235 L 422 235.5 L 422 272 L 384 271.5 L 421 271 L 420.5 269 L 419.5 270 L 393.5 270 L 389.5 270 L 386.5 269 L 385 269.5 L 384 256.5 L 385 255.5 L 385 238.5 L 384.5 237 L 421 236.5 L 420.5 235 Z " /><path fill="rgb(247,232,201)" stroke="rgb(247,232,201)" stroke-width="1" opacity="1" d="M 381.5 272 L 382 308 L 344 307.5 L 354 306.5 L 345 305.5 L 345 303.5 L 346 300.5 L 345 299.5 L 345 279.5 L 345 277.5 L 346 274 L 348.5 275 L 367.5 275 L 369.5 275 Q 372.8 276.1 372 273.5 L 373 273.5 L 373.5 275 Q 375 271.5 376.5 274 Q 381.9 275.7 381.5 272 Z M 359 306 L 359 307 L 374 307 L 359 306 Z " /><path fill="rgb(247,232,201)" stroke="rgb(247,232,201)" stroke-width="1" opacity="1" d="M 300.5 292 L 301 295.5 L 300 295.5 L 300.5 292 Z " /><path fill="rgb(247,232,201)" stroke="rgb(247,232,201)" stroke-width="1" opacity="1" d="M 303.5 308 L 306 308.5 L 303.5 309 L 303.5 308 Z " /><path fill="rgb(247,232,201)" stroke="rgb(247,232,201)" stroke-width="1" opacity="1" d="M 338.5 308 L 342 308.5 L 338.5 309 L 338.5 308 Z " /><path fill="rgb(247,232,201)" stroke="rgb(247,232,201)" stroke-width="1" opacity="1" d="M 304 310 L 336.5 310 L 337 311.5 L 338 311.5 Q 337.3 308.9 340 310 L 340.5 315 L 341.5 310 L 342 346 L 302 345.5 L 304 345 L 304 310 Z M 332 311 L 332 312 L 336 312 L 332 311 Z M 308 344 L 308 345 L 311 345 L 308 344 Z M 313 344 L 313 345 L 316 345 L 313 344 Z M 318 344 L 318 345 L 336 345 L 318 344 Z " /><path fill="rgb(247,232,201)" stroke="rgb(247,232,201)" stroke-width="1" opacity="1" d="M 261.5 346 L 274 346.5 L 261.5 347 L 261.5 346 Z " /><path fill="rgb(247,232,201)" stroke="rgb(247,232,201)" stroke-width="1" opacity="1" d="M 279.5 346 L 283 346.5 L 279.5 347 L 279.5 346 Z " /><path fill="rgb(247,232,201)" stroke="rgb(247,232,201)" stroke-width="1" opacity="1" d="M 293.5 346 L 300 346.5 L 293.5 347 L 293.5 346 Z " /><path fill="rgb(247,232,201)" stroke="rgb(247,232,201)" stroke-width="1" opacity="1" d="M 264.5 348 L 301 348 L 301 383 L 266.5 382 Q 265 384.5 263.5 381 Q 260.9 381.8 262 378.5 L 262 376.5 L 263 369.5 Q 260.7 368.3 262 363.5 L 263 360.5 L 262 357.5 L 264 350 L 270 349.5 L 264.5 349 L 264.5 348 Z M 298 349 L 296 351 L 298 351 L 298 349 Z M 300 378 L 299 381 L 297 382 L 300 382 L 300 378 Z " /><path fill="rgb(247,232,201)" stroke="rgb(247,232,201)" stroke-width="1" opacity="1" d="M 199.5 382 L 220 382.5 L 199.5 383 L 199.5 382 Z " /><path fill="rgb(247,232,201)" stroke="rgb(247,232,201)" stroke-width="1" opacity="1" d="M 825.5 382 L 828 382.5 L 825.5 383 L 825.5 382 Z " /><path fill="rgb(247,232,201)" stroke="rgb(247,232,201)" stroke-width="1" opacity="1" d="M 260.5 384 L 260 385.5 L 260 420 L 224.5 420 Q 223.3 422.3 222 419.5 L 222.5 398 L 223.5 420 L 231 418.5 L 224 418 L 224 385 L 259.5 385 L 260.5 384 Z M 233 418 L 233 419 L 235 419 L 233 418 Z M 252 418 L 252 419 L 254 419 L 252 418 Z M 257 418 L 257 419 L 259 419 L 257 418 Z " /><path fill="rgb(247,232,201)" stroke="rgb(247,232,201)" stroke-width="1" opacity="1" d="M 863.5 385 L 864 408.5 L 863 408.5 L 863.5 385 Z " /><path fill="rgb(247,232,201)" stroke="rgb(247,232,201)" stroke-width="1" opacity="1" d="M 221.5 421 L 222 434.5 L 221 435.5 L 221 458 L 182 457.5 L 183 456.5 L 183 423.5 L 182.5 422 L 220 422.5 Q 217.7 423.7 220.5 425 L 221.5 421 Z M 185 423 L 185 424 L 196 424 L 185 423 Z M 198 423 L 198 424 L 202 424 L 198 423 Z M 204 423 L 204 424 L 212 424 L 213 425 L 217 424 L 204 423 Z " /><path fill="rgb(247,232,201)" stroke="rgb(247,232,201)" stroke-width="1" opacity="1" d="M 900.5 426 L 901 429.5 L 900 429.5 L 900.5 426 Z " /><path fill="rgb(247,232,201)" stroke="rgb(247,232,201)" stroke-width="1" opacity="1" d="M 900.5 437 L 901 457.5 L 900 457.5 L 900.5 437 Z " /><path fill="rgb(247,232,201)" stroke="rgb(247,232,201)" stroke-width="1" opacity="1" d="M 150.5 458 L 177 458.5 L 150.5 459 L 150.5 458 Z " /><path fill="rgb(247,232,201)" stroke="rgb(247,232,201)" stroke-width="1" opacity="1" d="M 144.5 459 L 153 460.5 L 145 461.5 L 158.5 462 L 158.5 461 L 154 460.5 L 172.5 460 L 175.5 462 L 177.5 460 L 180 460.5 L 180 494.5 L 177.5 495 L 177.5 494 L 179 493.5 Q 175.9 491.1 169.5 492 L 170 493.5 L 169.5 495 L 145.5 495 L 144 493.5 L 143 460.5 L 144.5 459 Z M 164 461 L 164 462 L 167 462 L 164 461 Z " /><path fill="rgb(247,232,201)" stroke="rgb(247,232,201)" stroke-width="1" opacity="1" d="M 934.5 460 L 935 489.5 L 934 489.5 L 934.5 460 Z " /><path fill="rgb(247,232,201)" stroke="rgb(247,232,201)" stroke-width="1" opacity="1" d="M 141.5 465 L 142 479.5 L 141 479.5 L 141.5 465 Z " /><path fill="rgb(247,232,201)" stroke="rgb(247,232,201)" stroke-width="1" opacity="1" d="M 934.5 516 L 935 534.5 L 934 534.5 L 934.5 516 Z " /><path fill="rgb(247,232,201)" stroke="rgb(247,232,201)" stroke-width="1" opacity="1" d="M 903.5 540 L 915 540.5 L 903.5 541 L 903.5 540 Z " /><path fill="rgb(247,232,201)" stroke="rgb(247,232,201)" stroke-width="1" opacity="1" d="M 311.5 569 L 316 569.5 L 311.5 570 L 311.5 569 Z " /><path fill="rgb(247,232,201)" stroke="rgb(247,232,201)" stroke-width="1" opacity="1" d="M 318.5 569 L 321 569.5 L 318.5 570 L 318.5 569 Z " /><path fill="rgb(247,232,201)" stroke="rgb(247,232,201)" stroke-width="1" opacity="1" d="M 345.5 569 L 352 569.5 L 345.5 570 L 345.5 569 Z " /><path fill="rgb(247,232,201)" stroke="rgb(247,232,201)" stroke-width="1" opacity="1" d="M 362.5 569 L 363 571.5 L 362 571.5 L 362.5 569 Z " /><path fill="rgb(247,232,201)" stroke="rgb(247,232,201)" stroke-width="1" opacity="1" d="M 383 569 L 385 569.5 L 383 570.5 L 383 569 Z " /><path fill="rgb(247,232,201)" stroke="rgb(247,232,201)" stroke-width="1" opacity="1" d="M 386.5 569 L 392 569.5 L 386.5 570 L 386.5 569 Z " /><path fill="rgb(247,232,201)" stroke="rgb(247,232,201)" stroke-width="1" opacity="1" d="M 394.5 569 L 398 569.5 L 394.5 570 L 394.5 569 Z " /><path fill="rgb(247,232,201)" stroke="rgb(247,232,201)" stroke-width="1" opacity="1" d="M 406.5 569 L 409 569.5 L 406.5 570 L 406.5 569 Z " /><path fill="rgb(247,232,201)" stroke="rgb(247,232,201)" stroke-width="1" opacity="1" d="M 410.5 569 L 414 569.5 L 410.5 570 L 410.5 569 Z " /><path fill="rgb(247,232,201)" stroke="rgb(247,232,201)" stroke-width="1" opacity="1" d="M 147.5 570 L 158 570.5 L 147.5 571 L 147.5 570 Z " /><path fill="rgb(247,232,201)" stroke="rgb(247,232,201)" stroke-width="1" opacity="1" d="M 866.5 570 L 898 570.5 L 866.5 571 L 866.5 570 Z " /><path fill="rgb(247,232,201)" stroke="rgb(247,232,201)" stroke-width="1" opacity="1" d="M 158.5 572 L 159 603.5 L 158 603.5 L 158.5 572 Z " /><path fill="rgb(247,232,201)" stroke="rgb(247,232,201)" stroke-width="1" opacity="1" d="M 216.5 574 L 232 574.5 L 216.5 575 L 216.5 574 Z " /><path fill="rgb(247,232,201)" stroke="rgb(247,232,201)" stroke-width="1" opacity="1" d="M 362.5 602 L 363 612.5 L 361.5 612 L 359 611.5 L 362 611 L 362.5 602 Z " /><path fill="rgb(247,232,201)" stroke="rgb(247,232,201)" stroke-width="1" opacity="1" d="M 434.5 610 L 435 612 L 433 611.5 L 434.5 610 Z " /><path fill="rgb(247,232,201)" stroke="rgb(247,232,201)" stroke-width="1" opacity="1" d="M 311.5 611 L 312 613 L 310 612.5 L 311.5 611 Z " /><path fill="rgb(247,232,201)" stroke="rgb(247,232,201)" stroke-width="1" opacity="1" d="M 313.5 611 L 317 611.5 L 313.5 612 L 313.5 611 Z " /><path fill="rgb(247,232,201)" stroke="rgb(247,232,201)" stroke-width="1" opacity="1" d="M 354.5 611 L 358 611.5 L 354.5 612 L 354.5 611 Z " /><path fill="rgb(247,232,201)" stroke="rgb(247,232,201)" stroke-width="1" opacity="1" d="M 383 611 L 385 611.5 L 383 612.5 L 383 611 Z " /><path fill="rgb(247,232,201)" stroke="rgb(247,232,201)" stroke-width="1" opacity="1" d="M 158.5 615 L 159 721.5 L 158 721.5 L 158.5 615 Z " /><path fill="rgb(247,232,201)" stroke="rgb(247,232,201)" stroke-width="1" opacity="1" d="M 362.5 630 L 363 675.5 L 362 675.5 L 362.5 630 Z " /><path fill="rgb(247,232,201)" stroke="rgb(247,232,201)" stroke-width="1" opacity="1" d="M 311.5 631 L 312 633.5 L 311 633.5 L 311.5 631 Z " /><path fill="rgb(247,232,201)" stroke="rgb(247,232,201)" stroke-width="1" opacity="1" d="M 383.5 674 L 384 677 L 382 676.5 L 383.5 674 Z " /><path fill="rgb(247,232,201)" stroke="rgb(247,232,201)" stroke-width="1" opacity="1" d="M 311.5 675 Q 314.1 674.3 313 677 L 310 676.5 L 311.5 675 Z " /><path fill="rgb(247,232,201)" stroke="rgb(247,232,201)" stroke-width="1" opacity="1" d="M 351.5 675 L 361 675.5 L 351.5 676 L 351.5 675 Z " /><path fill="rgb(247,232,201)" stroke="rgb(247,232,201)" stroke-width="1" opacity="1" d="M 389.5 675 L 403 675.5 L 389.5 676 L 389.5 675 Z " /><path fill="rgb(247,232,201)" stroke="rgb(247,232,201)" stroke-width="1" opacity="1" d="M 427.5 676 L 433 676.5 L 427.5 677 L 427.5 676 Z " /><path fill="rgb(247,232,201)" stroke="rgb(247,232,201)" stroke-width="1" opacity="1" d="M 158.5 758 L 159 761.5 L 158 761.5 L 158.5 758 Z " /><path fill="rgb(247,232,201)" stroke="rgb(247,232,201)" stroke-width="1" opacity="1" d="M 158.5 788 L 159 835.5 L 158 835.5 L 158.5 788 Z " /><path fill="rgb(247,232,201)" stroke="rgb(247,232,201)" stroke-width="1" opacity="1" d="M 199.5 796 L 224 796.5 Q 222.8 799.3 221.5 797 L 219.5 798 L 218.5 797 L 199.5 797 L 199.5 796 Z " /><path fill="rgb(247,232,201)" stroke="rgb(247,232,201)" stroke-width="1" opacity="1" d="M 230.5 796 L 233 797.5 L 231.5 797 L 230.5 796 Z " /><path fill="rgb(247,232,201)" stroke="rgb(247,232,201)" stroke-width="1" opacity="1" d="M 195.5 829 L 196 835 L 198 835.5 L 195 836 L 195.5 829 Z " /><path fill="rgb(247,232,201)" stroke="rgb(247,232,201)" stroke-width="1" opacity="1" d="M 202.5 835 L 219 835.5 L 202.5 836 L 202.5 835 Z " /><path fill="rgb(247,232,201)" stroke="rgb(247,232,201)" stroke-width="1" opacity="1" d="M 223.5 835 L 243 835.5 L 223.5 836 L 223.5 835 Z " /><path fill="rgb(247,232,201)" stroke="rgb(247,232,201)" stroke-width="1" opacity="1" d="M 245.5 835 L 251 835.5 L 245.5 836 L 245.5 835 Z " /><path fill="rgb(247,232,201)" stroke="rgb(247,232,201)" stroke-width="1" opacity="1" d="M 252.5 835 L 265 835.5 L 252.5 836 L 252.5 835 Z " /><path fill="rgb(247,232,201)" stroke="rgb(247,232,201)" stroke-width="1" opacity="1" d="M 268.5 835 L 280 835.5 L 268.5 836 L 268.5 835 Z " /><path fill="rgb(247,232,201)" stroke="rgb(247,232,201)" stroke-width="1" opacity="1" d="M 281.5 835 L 289 835.5 L 281.5 836 L 281.5 835 Z " /><path fill="rgb(247,232,201)" stroke="rgb(247,232,201)" stroke-width="1" opacity="1" d="M 313.5 835 L 344 835.5 L 313.5 836 L 313.5 835 Z " /><path fill="rgb(247,232,201)" stroke="rgb(247,232,201)" stroke-width="1" opacity="1" d="M 397.5 835 L 408 835.5 L 397.5 836 L 397.5 835 Z " /><path fill="rgb(247,232,201)" stroke="rgb(247,232,201)" stroke-width="1" opacity="1" d="M 441.5 835 L 458 835.5 L 441.5 836 L 441.5 835 Z " /><path fill="rgb(247,232,201)" stroke="rgb(247,232,201)" stroke-width="1" opacity="1" d="M 701.5 835 L 704 835.5 L 701.5 836 L 701.5 835 Z " /><path fill="rgb(247,232,201)" stroke="rgb(247,232,201)" stroke-width="1" opacity="1" d="M 831.5 841 L 832 865.5 L 831 865.5 L 831.5 841 Z " /><path fill="rgb(247,232,201)" stroke="rgb(247,232,201)" stroke-width="1" opacity="1" d="M 831.5 867 L 832 869.5 L 831 869.5 L 831.5 867 Z " /><path fill="rgb(247,232,201)" stroke="rgb(247,232,201)" stroke-width="1" opacity="1" d="M 252.5 872 L 269 872.5 L 252.5 873 L 252.5 872 Z " /><path fill="rgb(247,232,201)" stroke="rgb(247,232,201)" stroke-width="1" opacity="1" d="M 516.5 872 L 519 872.5 L 516.5 873 L 516.5 872 Z " /><path fill="rgb(247,232,201)" stroke="rgb(247,232,201)" stroke-width="1" opacity="1" d="M 765.5 872 L 770 872.5 L 765.5 873 L 765.5 872 Z " /><path fill="rgb(247,232,201)" stroke="rgb(247,232,201)" stroke-width="1" opacity="1" d="M 805.5 872 L 815 872.5 L 805.5 873 L 805.5 872 Z " /><path fill="rgb(234,145,141)" stroke="rgb(234,145,141)" stroke-width="1" opacity="1" d="M 485.5 125 L 493 125.5 L 485.5 126 L 485.5 125 Z " /><path fill="rgb(234,145,141)" stroke="rgb(234,145,141)" stroke-width="1" opacity="1" d="M 423.5 160 L 461.5 160 L 463 161.5 L 462.5 163 L 462 161 L 423.5 161 L 423.5 160 Z " /><path fill="rgb(234,145,141)" stroke="rgb(234,145,141)" stroke-width="1" opacity="1" d="M 481.5 160 L 533 160.5 L 481.5 161 L 481.5 160 Z " /><path fill="rgb(234,145,141)" stroke="rgb(234,145,141)" stroke-width="1" opacity="1" d="M 535.5 160 L 544 160.5 L 535.5 161 L 535.5 160 Z " /><path fill="rgb(234,145,141)" stroke="rgb(234,145,141)" stroke-width="1" opacity="1" d="M 421.5 161 L 422 195.5 L 421 195.5 L 421.5 161 Z " /><path fill="rgb(234,145,141)" stroke="rgb(234,145,141)" stroke-width="1" opacity="1" d="M 543.5 164 L 544 198 L 463 198 L 463 234.5 L 460.5 235 L 460.5 234 L 462 233.5 L 462 198.5 L 463.5 197 L 543 197 L 543.5 164 Z " /><path fill="rgb(234,145,141)" stroke="rgb(234,145,141)" stroke-width="1" opacity="1" d="M 707 196 L 710 196.5 L 707.5 198 L 707 196 Z " /><path fill="rgb(234,145,141)" stroke="rgb(234,145,141)" stroke-width="1" opacity="1" d="M 430.5 197 L 461 197.5 L 430.5 198 L 430.5 197 Z " /><path fill="rgb(234,145,141)" stroke="rgb(234,145,141)" stroke-width="1" opacity="1" d="M 614.5 199 L 615 205.5 L 614 205.5 L 614.5 199 Z " /><path fill="rgb(234,145,141)" stroke="rgb(234,145,141)" stroke-width="1" opacity="1" d="M 381.5 209 L 382 233.5 L 381 233.5 L 381.5 209 Z " /><path fill="rgb(234,145,141)" stroke="rgb(234,145,141)" stroke-width="1" opacity="1" d="M 788.5 213 L 789 234.5 L 788 234.5 L 788.5 213 Z " /><path fill="rgb(234,145,141)" stroke="rgb(234,145,141)" stroke-width="1" opacity="1" d="M 655.5 216 L 656 227.5 L 655 227.5 L 655.5 216 Z " /><path fill="rgb(234,145,141)" stroke="rgb(234,145,141)" stroke-width="1" opacity="1" d="M 425.5 234 L 451 234.5 L 425.5 235 L 425.5 234 Z " /><path fill="rgb(234,145,141)" stroke="rgb(234,145,141)" stroke-width="1" opacity="1" d="M 422.5 268 L 423 271.5 L 421.5 273 L 402.5 273 L 402.5 272 L 421.5 272 L 422.5 268 Z " /><path fill="rgb(234,145,141)" stroke="rgb(234,145,141)" stroke-width="1" opacity="1" d="M 464.5 270 L 468 270.5 L 464.5 271 L 464.5 270 Z " /><path fill="rgb(234,145,141)" stroke="rgb(234,145,141)" stroke-width="1" opacity="1" d="M 329.5 271 L 341 271.5 L 329.5 272 L 329.5 271 Z " /><path fill="rgb(234,145,141)" stroke="rgb(234,145,141)" stroke-width="1" opacity="1" d="M 342.5 272 L 343 274.5 L 342 274.5 L 342.5 272 Z " /><path fill="rgb(234,145,141)" stroke="rgb(234,145,141)" stroke-width="1" opacity="1" d="M 382.5 272 L 383 307.5 L 382 307.5 L 382.5 272 Z " /><path fill="rgb(234,145,141)" stroke="rgb(234,145,141)" stroke-width="1" opacity="1" d="M 692.5 302 L 695 302.5 L 692.5 303 L 692.5 302 Z " /><path fill="rgb(234,145,141)" stroke="rgb(234,145,141)" stroke-width="1" opacity="1" d="M 460.5 306 Q 462.8 305.3 462 307.5 L 460.5 306 Z " /><path fill="rgb(234,145,141)" stroke="rgb(234,145,141)" stroke-width="1" opacity="1" d="M 342.5 335 L 343 345.5 L 341.5 347 L 326.5 347 L 326.5 346 L 342 346 L 342.5 335 Z " /><path fill="rgb(234,145,141)" stroke="rgb(234,145,141)" stroke-width="1" opacity="1" d="M 301.5 336 L 302 343.5 L 301 343.5 L 301.5 336 Z " /><path fill="rgb(234,145,141)" stroke="rgb(234,145,141)" stroke-width="1" opacity="1" d="M 221.5 346 L 222 362.5 L 221 362.5 L 221.5 346 Z " /><path fill="rgb(234,145,141)" stroke="rgb(234,145,141)" stroke-width="1" opacity="1" d="M 301.5 346 L 302 382.5 L 300.5 384 L 259.5 384 L 259.5 383 L 301 383 L 301.5 346 Z " /><path fill="rgb(234,145,141)" stroke="rgb(234,145,141)" stroke-width="1" opacity="1" d="M 306.5 346 L 312 346.5 L 306.5 347 L 306.5 346 Z " /><path fill="rgb(234,145,141)" stroke="rgb(234,145,141)" stroke-width="1" opacity="1" d="M 226.5 383 L 230 383.5 L 226.5 384 L 226.5 383 Z " /><path fill="rgb(234,145,141)" stroke="rgb(234,145,141)" stroke-width="1" opacity="1" d="M 260.5 385 L 261 421 L 224 420.5 L 260 420 L 260.5 385 Z " /><path fill="rgb(234,145,141)" stroke="rgb(234,145,141)" stroke-width="1" opacity="1" d="M 706.5 418 L 707.5 419 L 717 419.5 L 706 420 L 706.5 418 Z " /><path fill="rgb(234,145,141)" stroke="rgb(234,145,141)" stroke-width="1" opacity="1" d="M 140.5 420 L 141 422.5 L 140 422.5 L 140.5 420 Z " /><path fill="rgb(234,145,141)" stroke="rgb(234,145,141)" stroke-width="1" opacity="1" d="M 191.5 420 L 198 420.5 L 191.5 421 L 191.5 420 Z " /><path fill="rgb(234,145,141)" stroke="rgb(234,145,141)" stroke-width="1" opacity="1" d="M 894.5 420 L 900 420.5 L 894.5 421 L 894.5 420 Z " /><path fill="rgb(234,145,141)" stroke="rgb(234,145,141)" stroke-width="1" opacity="1" d="M 140.5 432 L 141 454.5 L 140 454.5 L 140.5 432 Z " /><path fill="rgb(234,145,141)" stroke="rgb(234,145,141)" stroke-width="1" opacity="1" d="M 221.5 435 L 222 457.5 L 219.5 459 L 219.5 458 L 221 457.5 L 221.5 435 Z " /><path fill="rgb(234,145,141)" stroke="rgb(234,145,141)" stroke-width="1" opacity="1" d="M 143.5 458 L 147 458.5 L 143.5 459 L 143.5 458 Z " /><path fill="rgb(234,145,141)" stroke="rgb(234,145,141)" stroke-width="1" opacity="1" d="M 179.5 458 L 183 458.5 L 181 459 L 181 494.5 L 179.5 496 L 143 495.5 L 180 495 L 180 459.5 L 179.5 458 Z " /><path fill="rgb(234,145,141)" stroke="rgb(234,145,141)" stroke-width="1" opacity="1" d="M 821.5 494 L 827 494.5 L 821.5 495 L 821.5 494 Z " /><path fill="rgb(234,145,141)" stroke="rgb(234,145,141)" stroke-width="1" opacity="1" d="M 221.5 497 L 222 504.5 L 221 504.5 L 221.5 497 Z " /><path fill="rgb(234,145,141)" stroke="rgb(234,145,141)" stroke-width="1" opacity="1" d="M 221.5 532 L 222 534.5 L 221 534.5 L 221.5 532 Z " /><path fill="rgb(234,145,141)" stroke="rgb(234,145,141)" stroke-width="1" opacity="1" d="M 311.5 568 L 310.5 570 L 311.5 568 Z " /><path fill="rgb(234,145,141)" stroke="rgb(234,145,141)" stroke-width="1" opacity="1" d="M 319.5 568 L 325 568.5 L 319.5 569 L 319.5 568 Z " /><path fill="rgb(234,145,141)" stroke="rgb(234,145,141)" stroke-width="1" opacity="1" d="M 334.5 568 L 349 568.5 L 334.5 569 L 334.5 568 Z " /><path fill="rgb(234,145,141)" stroke="rgb(234,145,141)" stroke-width="1" opacity="1" d="M 360.5 568 Q 362.8 567.3 362 569.5 L 360.5 568 Z " /><path fill="rgb(234,145,141)" stroke="rgb(234,145,141)" stroke-width="1" opacity="1" d="M 383.5 568 L 412 568.5 L 383.5 569 L 382.5 570 L 383.5 568 Z " /><path fill="rgb(234,145,141)" stroke="rgb(234,145,141)" stroke-width="1" opacity="1" d="M 424.5 568 L 432 568.5 L 424.5 569 L 424.5 568 Z " /><path fill="rgb(234,145,141)" stroke="rgb(234,145,141)" stroke-width="1" opacity="1" d="M 363.5 569 L 364 611.5 L 363 611.5 L 363.5 569 Z " /><path fill="rgb(234,145,141)" stroke="rgb(234,145,141)" stroke-width="1" opacity="1" d="M 827.5 574 L 828.5 576 L 827.5 574 Z " /><path fill="rgb(234,145,141)" stroke="rgb(234,145,141)" stroke-width="1" opacity="1" d="M 194.5 576 L 195 797.5 L 194 797.5 L 194.5 576 Z " /><path fill="rgb(234,145,141)" stroke="rgb(234,145,141)" stroke-width="1" opacity="1" d="M 382.5 610 L 383 612.5 L 382 612.5 L 382.5 610 Z " /><path fill="rgb(234,145,141)" stroke="rgb(234,145,141)" stroke-width="1" opacity="1" d="M 435.5 611 L 434.5 613 L 435.5 611 Z " /><path fill="rgb(234,145,141)" stroke="rgb(234,145,141)" stroke-width="1" opacity="1" d="M 312.5 612 L 319 612.5 L 312.5 613 L 312.5 612 Z " /><path fill="rgb(234,145,141)" stroke="rgb(234,145,141)" stroke-width="1" opacity="1" d="M 384.5 612 L 387 612.5 L 384.5 613 L 384.5 612 Z " /><path fill="rgb(234,145,141)" stroke="rgb(234,145,141)" stroke-width="1" opacity="1" d="M 310 630 L 312 630.5 L 310 631.5 L 310 630 Z " /><path fill="rgb(234,145,141)" stroke="rgb(234,145,141)" stroke-width="1" opacity="1" d="M 363.5 630 L 364 637.5 L 363 637.5 L 363.5 630 Z " /><path fill="rgb(234,145,141)" stroke="rgb(234,145,141)" stroke-width="1" opacity="1" d="M 382 630 L 384 630.5 L 382 631.5 L 382 630 Z " /><path fill="rgb(234,145,141)" stroke="rgb(234,145,141)" stroke-width="1" opacity="1" d="M 864.5 633 L 865 641.5 L 864 641.5 L 864.5 633 Z " /><path fill="rgb(234,145,141)" stroke="rgb(234,145,141)" stroke-width="1" opacity="1" d="M 363.5 644 L 364 649.5 L 363 649.5 L 363.5 644 Z " /><path fill="rgb(234,145,141)" stroke="rgb(234,145,141)" stroke-width="1" opacity="1" d="M 315.5 675 Q 321.4 673.3 320 677 L 313 676.5 L 315.5 675 Z " /><path fill="rgb(234,145,141)" stroke="rgb(234,145,141)" stroke-width="1" opacity="1" d="M 361.5 675 L 362.5 677 L 359 676.5 L 361.5 675 Z " /><path fill="rgb(234,145,141)" stroke="rgb(234,145,141)" stroke-width="1" opacity="1" d="M 321.5 676 L 335 676.5 L 321.5 677 L 321.5 676 Z " /><path fill="rgb(234,145,141)" stroke="rgb(234,145,141)" stroke-width="1" opacity="1" d="M 336.5 676 L 340 676.5 L 336.5 677 L 336.5 676 Z " /><path fill="rgb(234,145,141)" stroke="rgb(234,145,141)" stroke-width="1" opacity="1" d="M 384.5 676 L 427 676.5 L 384.5 677 L 384.5 676 Z " /><path fill="rgb(234,145,141)" stroke="rgb(234,145,141)" stroke-width="1" opacity="1" d="M 516.5 796 L 517 798 L 551.5 798 L 556.5 797 L 562.5 797 L 671.5 797 L 672.5 798 L 705.5 798 L 707 797.5 L 705 806.5 L 705 808.5 L 706 815.5 L 706 817.5 L 706 834.5 L 707 835.5 L 704.5 836 L 701.5 835 L 700.5 836 L 516 836 L 517 833.5 L 517 798.5 L 516.5 796 Z " /><path fill="rgb(234,145,141)" stroke="rgb(234,145,141)" stroke-width="1" opacity="1" d="M 196.5 797 L 219 797.5 L 196.5 798 L 196.5 797 Z " /><path fill="rgb(234,145,141)" stroke="rgb(234,145,141)" stroke-width="1" opacity="1" d="M 223.5 797 L 228 797.5 L 223.5 798 L 223.5 797 Z " /><path fill="rgb(234,145,141)" stroke="rgb(234,145,141)" stroke-width="1" opacity="1" d="M 229.5 797 L 232 797.5 L 229.5 798 L 229.5 797 Z " /><path fill="rgb(234,145,141)" stroke="rgb(234,145,141)" stroke-width="1" opacity="1" d="M 168.5 839 L 192 839.5 L 168.5 840 L 168.5 839 Z " /><path fill="rgb(234,145,141)" stroke="rgb(234,145,141)" stroke-width="1" opacity="1" d="M 837.5 839 L 844 839.5 L 837.5 840 L 837.5 839 Z " /><path fill="rgb(234,145,141)" stroke="rgb(234,145,141)" stroke-width="1" opacity="1" d="M 193.5 872 L 200 872.5 L 193.5 873 L 193.5 872 Z " /></svg>